<?xml version="1.0" encoding="utf-8"?>
<!-- Generator: Adobe Illustrator 23.0.1, SVG Export Plug-In . SVG Version: 6.00 Build 0)  -->
<svg version="1.1" id="Layer_1" xmlns="http://www.w3.org/2000/svg" xmlns:xlink="http://www.w3.org/1999/xlink" x="0px" y="0px"
	 viewBox="0 0 512 512" style="enable-background:new 0 0 512 512;" xml:space="preserve">
<style type="text/css">
	.st0{fill:#FFCA28;}
	.st1{fill:none;stroke:#000000;stroke-width:6;stroke-miterlimit:10;}
	.st2{fill:#FFA000;stroke:#000000;stroke-width:6;stroke-miterlimit:10;}
	.st3{fill:#3791D7;}
</style>
<g>
	<path class="st0" d="M35.1,475c0,2.8,2.2,5,5,5H480c2.8,0,5-2.2,5-5V159.2c0-2.8-2.2-5-5-5H40.1c-2.8,0-5,2.2-5,5V475z"/>
	<path class="st1" d="M35.1,475c0,2.8,2.2,5,5,5H480c2.8,0,5-2.2,5-5V159.2c0-2.8-2.2-5-5-5H40.1c-2.8,0-5,2.2-5,5V475z"/>
</g>
<path class="st2" d="M215.1,154.2l-51.8-49.7c0,0-107.5-3.5-120.5,9.7c-7.9,8-7.5,51.9-7.6,71.9c-0.4-10.8,13-31,31-31.3
	C116,153.8,215.1,154.2,215.1,154.2z"/>
<rect x="112" y="355" class="st3" width="73" height="137"/>
<rect x="316" y="355" class="st3" width="73" height="137"/>
<rect x="112" y="311" class="st3" width="277" height="56"/>
</svg>
