<?xml version="1.0" encoding="utf-8"?>
<!-- Generator: Adobe Illustrator 23.0.1, SVG Export Plug-In . SVG Version: 6.00 Build 0)  -->
<svg version="1.1" id="Layer_1" xmlns="http://www.w3.org/2000/svg" xmlns:xlink="http://www.w3.org/1999/xlink" x="0px" y="0px"
	 viewBox="0 0 512 512" style="enable-background:new 0 0 512 512;" xml:space="preserve">
<style type="text/css">
	.st0{fill:#1EBBEE;}
	.st1{fill:#110000;}
	.st2{fill:#F7B80D;stroke:#000000;stroke-width:16;stroke-miterlimit:10;}
	.st3{font-family:'MyriadPro-Regular';}
	.st4{font-size:12px;}
	.st5{fill:#F7B80D;}
</style>
<g>
	<path class="st0" d="M350.5,412"/>
	<path class="st0" d="M-41.3,170.1"/>
</g>
<g id="Layer_3">
	<rect x="24.2" y="39.8" class="st1" width="463.6" height="446.8"/>
</g>
<text transform="matrix(1 0 0 1 163 84)" class="st2 st3 st4">T</text>
<g>
	<path class="st5" d="M115.8,168.5V337H94V168.5H115.8z"/>
	<path class="st5" d="M153.8,170.8c13.3-2,29-3.5,46.3-3.5c31.3,0,53.5,7.3,68.3,21c15,13.8,23.8,33.3,23.8,60.5
		c0,27.5-8.5,50-24.3,65.5C252,330,226,338.5,193.3,338.5c-15.5,0-28.5-0.8-39.5-2V170.8z M175.5,319.8c5.5,1,13.5,1.3,22,1.3
		c46.5,0,71.8-26,71.8-71.5c0.3-39.8-22.3-65-68.3-65c-11.3,0-19.8,1-25.5,2.3V319.8z"/>
	<path class="st5" d="M344,284l-17.5,53H304l57.3-168.5h26.3L445,337h-23.3l-18-53H344z M399.2,267l-16.5-48.5
		c-3.8-11-6.3-21-8.8-30.8h-0.5c-2.5,10-5.3,20.3-8.5,30.5L348.5,267H399.2z"/>
</g>
</svg>
