<?xml version="1.0" encoding="utf-8"?>
<!-- Generator: Adobe Illustrator 23.0.1, SVG Export Plug-In . SVG Version: 6.00 Build 0)  -->
<svg version="1.1" xmlns="http://www.w3.org/2000/svg" xmlns:xlink="http://www.w3.org/1999/xlink" x="0px" y="0px"
	 viewBox="0 0 512 512" style="enable-background:new 0 0 512 512;" xml:space="preserve">
<style type="text/css">
	.st0{fill:#FFFFFF;}
	.st1{fill:#0B6FFF;}
	.st2{fill:#11700B;}
	.st3{fill:#0C2035;}
	.st4{fill:#581D0B;}
	.st5{fill:#494949;}
	.st6{fill:#00175B;}
	.st7{fill:none;stroke:#000000;stroke-width:6;stroke-miterlimit:10;}
</style>
<g id="Layer_3">
	<polyline class="st0" points="26.9,287.4 154,467 492,199 378.3,38.5 26.9,287.4 	"/>
	<polyline class="st1" points="286.6,103.7 420.1,256 492,199 378.3,38.5 286.6,103.7 	"/>
</g>
<g id="Layer_2">
	<path class="st2" d="M198,166.2c0,0,15.6,73.4,50.2,101.7s89.9,53.2,89.9,53.2L492,199L378.3,38.5L198,166.2z"/>
	<polygon class="st2" points="136.9,402.2 149.8,417.6 155.5,392.5 170.9,421.7 181.4,414.4 155.4,366.3 	"/>
</g>
<g id="Layer_5">
</g>
<g id="Layer_6">
	<polyline class="st3" points="286.6,103.7 413.7,261.1 492,199 378.3,38.5 286.6,103.7 	"/>
</g>
<g id="Layer_7">
	<polygon class="st4" points="433,112.6 348,179.7 413.7,261.1 492,199 	"/>
</g>
<g id="Layer_8">
	<path class="st5" d="M236.6,256c0,0,51.6,50,97.7,62.1c13.7,3.6,7.9-1.6,10.7-1.9c6.6-0.8,3-3,3-3l65.7-52.1L348,173.8L236.6,256z"
		/>
	<polygon class="st6" points="108.9,248.6 56,290.6 74.6,314.1 130.4,278.5 	"/>
	<polygon class="st0" points="221,186.8 238.2,191.5 247.7,173.8 273,206.5 287.6,195.6 248.7,147.2 239,155.7 	"/>
</g>
<g id="Layer_1">
	<polygon class="st7" points="26.9,287.4 154,467 492,199 378.3,38.5 233.5,141 	"/>
</g>
<g id="Layer_4">
</g>
</svg>
