<svg xmlns="http://www.w3.org/2000/svg" viewBox="0 0 409.67 409.83"><defs><style>.b585a916-af2d-40eb-aeed-5cda28fda29d{fill:#fff;stroke-width:13px;}.ad7832ec-3ce8-4b85-87fb-4615b69459d9,.b585a916-af2d-40eb-aeed-5cda28fda29d{stroke:#bcbcbc;}.a4c74dae-30f9-400b-9146-3cbb984f4695,.ad7832ec-3ce8-4b85-87fb-4615b69459d9,.b585a916-af2d-40eb-aeed-5cda28fda29d{stroke-miterlimit:10;}.fc94dd9f-da7f-4049-99b5-6979b91bfd2b{fill:#0dff00;}.a4c74dae-30f9-400b-9146-3cbb984f4695,.ad7832ec-3ce8-4b85-87fb-4615b69459d9{fill:none;}.a4c74dae-30f9-400b-9146-3cbb984f4695{stroke:#0c00ff;stroke-width:15px;}.ad7832ec-3ce8-4b85-87fb-4615b69459d9{stroke-width:12px;}</style></defs><title>Untitled-1</title><g id="ee554a6f-c201-4b9c-b809-19f973e9099e" data-name="Layer 2"><polygon class="b585a916-af2d-40eb-aeed-5cda28fda29d" points="97.37 306.37 250.27 306.37 403.17 306.37 403.17 6.5 97.37 6.5 97.37 306.37"/><polygon class="b585a916-af2d-40eb-aeed-5cda28fda29d" points="212.71 381.75 286.6 381.75 249.65 317.69 212.71 381.75"/><rect class="b585a916-af2d-40eb-aeed-5cda28fda29d" x="6.5" y="199.14" width="48.54" height="204.19"/><rect class="fc94dd9f-da7f-4049-99b5-6979b91bfd2b" x="15.4" y="209.98" width="31.28" height="15.64"/><polygon class="b585a916-af2d-40eb-aeed-5cda28fda29d" points="96.75 306.37 249.65 306.37 402.55 306.37 402.55 6.5 96.75 6.5 96.75 306.37"/></g><g id="e2f79e86-ed98-4fb9-b180-67615c805ad0" data-name="Layer 3"><polyline class="a4c74dae-30f9-400b-9146-3cbb984f4695" points="96.53 170.84 205.73 83.78 307.58 232.63 402.77 112.7"/></g><g id="f146a88c-b8be-42dd-9fc2-dda236f31aaf" data-name="Layer 4"><polygon class="ad7832ec-3ce8-4b85-87fb-4615b69459d9" points="96.75 306.37 249.65 306.37 402.55 306.37 402.55 6.5 96.75 6.5 96.75 306.37"/></g></svg>