<?xml version="1.0" encoding="utf-8"?>
<!-- Generator: Adobe Illustrator 23.0.1, SVG Export Plug-In . SVG Version: 6.00 Build 0)  -->
<svg version="1.1" id="Layer_1" xmlns="http://www.w3.org/2000/svg" xmlns:xlink="http://www.w3.org/1999/xlink" x="0px" y="0px"
	 viewBox="0 0 512 512" style="enable-background:new 0 0 512 512;" xml:space="preserve">
<style type="text/css">
	.st0{fill:#1EBBEE;}
	.st1{fill:#F7B80D;}
</style>
<path class="st0" d="M350.5,412"/>
<path class="st1" d="M471.2,230C475,352.6,378.6,455.1,256,458.9S30.8,366.3,27,243.7S119.6,18.5,242.3,14.7S467.4,107.3,471.2,230z
	 M257.5,42.6C146.3,46,59,141,62.5,254.8S159,458.1,270.2,454.7s198.5-98.5,195-212.3S368.7,39.1,257.5,42.6z"/>
<g>
	<path class="st0" d="M230.9,407.8h-85.5l-76.6-209l0,0c0,0,0-8.3,9.9-31.9c3.7-11.2,17.6-33.1,17.6-33.1h94.5v65h-20.3l32,117
		l40.6-117h-20.1v-65h118.4v65h-20.1l41.2,117l32.4-117h-19.5v-65H485v65h-18.8l-77.3,209h-84.4l-36.7-104.7L230.9,407.8z"/>
</g>
<path class="st0" d="M-41.3,170.1"/>
</svg>
