<svg id="b8854e13-32e1-439c-872f-2ce52f2dcf56" data-name="Layer 1" xmlns="http://www.w3.org/2000/svg" xmlns:xlink="http://www.w3.org/1999/xlink" viewBox="0 0 1092.55 614.63"><defs><style>.a9d8d99a-ddf3-4b4c-b0ae-1a60aabba54d{fill:url(#fdaa82b1-3c08-4a69-b5af-4b3d0af3fb6f);}.a4b26c41-d327-4c07-9f2b-5c65ed07f5f0{fill:url(#ec66d6c9-c59b-4a53-bb58-898b0a188c3d);}.a86f982d-1ca5-4aa4-9894-00729262d6a7{fill:url(#b4cce490-0797-4f3a-8323-04c891f7ac73);}.afa4ace7-8667-4dac-9a68-dffc5ed9cb58{fill:url(#aeffac93-18d8-48f1-af06-5de949d13b79);}.a900e6ea-abbb-4cd3-9862-6d0837450fce{fill:url(#a2504c2f-478a-4260-82dd-37a21595811f);}.ec4dee38-401b-4502-93f3-443ee46633a6{fill:url(#bcba5267-0ea0-4f70-91a3-a63a4eed25af);}.f5d906f5-a1b9-481c-8fb7-ec864d1a41e0{fill:url(#e766939e-a4df-4296-ad26-6cec82f32bed);}.f67adca5-862d-44ab-bb57-0bcd5362e5d1{fill:url(#bf5a79eb-9563-40e3-b906-42644b96e750);}.b98f541b-30cc-4bf3-84e3-14bc437faac0{fill:url(#b86fd626-678d-47ea-9357-d8e6825385b7);}.aaaa30c4-3155-4483-a6d3-79cc23d0f60b{fill:url(#a11d732f-2721-45b4-9d7a-ebf6c175363b);}.bebb7bd2-39a1-47ce-b450-f444e2b55d6f{fill:url(#a87eb846-52d8-4c6a-930c-ace924c2ceef);}.a8b4fcff-14c8-46b9-8075-cab097d58264{fill:url(#a46f3f80-02ff-40fc-88b3-204ccbd98c2c);}.e5b3b1c7-340f-4ea8-871c-d1006060fcd4{fill:url(#a480869c-4be3-4ad5-839c-7eb64f17a1bd);}.a3fa0e8e-c39d-4085-b482-3407608c7aae{fill:url(#a5ececfe-7ecf-417e-b265-873d4cec0ed9);}.a2ed7151-5892-446d-bb3e-c8bcccf0ccdc{fill:url(#ad8d37bb-2301-43c1-9450-0679f2002244);}.b8dd384e-20f4-4213-8b06-749cb87b1e2b{fill:url(#e8166337-0996-4582-9226-262c445fc343);}.b666f204-3b34-4c3b-b6e2-186baa9a8fd1{fill:url(#e71e1133-1756-489b-b3a5-b050c07bf8c0);}.a846e5ba-b944-4459-9bc1-6446f5e88b2b{fill:url(#e00ceb67-1def-4f05-8d85-e5ca31eb449e);}.f666d84d-b95c-4777-a348-edcd94a30251{fill:url(#bc7d1989-525c-4759-8fc8-dd1ac17961a4);}.ac2bb531-6f0d-4889-885f-434d1075459c{fill:url(#bdbec460-d14e-4917-9ded-3c79608e264a);}.a623eb7b-04cb-4147-8ce3-d84f37ba31f9{fill:url(#bae80432-d448-4d3e-99b1-67f4b13bb231);}.e2052ea4-de4b-4d81-addc-932f3e1c4ad3{fill:url(#f3e260b7-868b-438a-81f3-1dcf072bae49);}.b26f9cf1-06f7-4e60-9160-213901b357a3{fill:url(#aac3407e-ab16-4869-ba11-79dffc123ccc);}.b7c73c59-da4a-4a1b-951a-547b3aca9bdf{fill:url(#b5ff5c50-2683-4d51-bd47-1ee718754471);}.becd3150-c366-4c6b-9af8-16ec9653dc55{fill:url(#ae84abe0-091b-4880-8d55-e35da3c4790f);}.ac1b2d41-7615-4549-833e-b3cc736e6243{fill:url(#a8431d21-1bec-4766-a327-9ef94b6f98bb);}.a41fe7ea-e4e8-4040-9932-2d919d530625{fill:url(#a390c654-2804-4264-9dfc-86ce5e673ae1);}.b25ae824-6800-4af9-8930-2b0fbfc05430{fill:url(#f4bb7a55-835a-4984-ab90-41176eaab4bd);}.e1015070-33e3-47d7-9415-599bcab09b1c{fill:url(#b626f25e-1720-4400-98f9-b6009466daf0);}.b33b0b4f-d572-4c29-b184-6821376cf472{fill:url(#a09b5c8f-4934-4395-bf9f-5da5fd342b77);}.b056813c-3bf0-48f8-bced-f575fd09165d{fill:#fff;stroke:#000;stroke-miterlimit:10;}.e2398209-af79-40d8-8585-3b13df74ea5b{fill:url(#b8edb50d-238f-4f72-bb17-d11cb006af7e);}.b93e4803-8948-4741-be33-1c6c884ee8dc{fill:none;}.ba38d9e3-1387-4d19-978b-498160d8c59f{fill:url(#bd1a793c-ca7e-4951-9df8-599b78e880f5);}</style><linearGradient id="fdaa82b1-3c08-4a69-b5af-4b3d0af3fb6f" x1="4892.4" y1="4324.31" x2="4753.6" y2="3050.25" gradientTransform="matrix(0.57, 0, 0, -0.57, -2197.34, 2405.07)" gradientUnits="userSpaceOnUse"><stop offset="0" stop-color="#aacaf3"/><stop offset="0.95" stop-color="#1d57df"/></linearGradient><linearGradient id="ec66d6c9-c59b-4a53-bb58-898b0a188c3d" x1="5716.54" y1="4193.7" x2="5716.54" y2="4193.7" gradientTransform="matrix(0.57, 0, 0, -0.57, 1351.96, 6193.37)" xlink:href="#fdaa82b1-3c08-4a69-b5af-4b3d0af3fb6f"/><linearGradient id="b4cce490-0797-4f3a-8323-04c891f7ac73" x1="5783.33" y1="4226.53" x2="5783.33" y2="4226.53" gradientTransform="matrix(0.57, 0, 0, -0.57, 1351.96, 6193.37)" xlink:href="#fdaa82b1-3c08-4a69-b5af-4b3d0af3fb6f"/><linearGradient id="aeffac93-18d8-48f1-af06-5de949d13b79" x1="4565.99" y1="4185.03" x2="5387.34" y2="2351.94" gradientTransform="matrix(0.57, 0, 0, -0.57, 1351.96, 6193.37)" gradientUnits="userSpaceOnUse"><stop offset="0.43" stop-color="#3d57ac"/><stop offset="1" stop-color="#6b81bf"/></linearGradient><linearGradient id="a2504c2f-478a-4260-82dd-37a21595811f" x1="5790.63" y1="3699.88" x2="5790.63" y2="3699.88" gradientTransform="matrix(0.57, 0, 0, -0.57, 1351.96, 6193.37)" gradientUnits="userSpaceOnUse"><stop offset="0.5" stop-color="#3d57ac"/><stop offset="0.99" stop-color="#6b81bf"/></linearGradient><linearGradient id="bcba5267-0ea0-4f70-91a3-a63a4eed25af" x1="3863" y1="3532.29" x2="3863" y2="3532.29" xlink:href="#a2504c2f-478a-4260-82dd-37a21595811f"/><linearGradient id="e766939e-a4df-4296-ad26-6cec82f32bed" x1="3862.8" y1="3532.54" x2="3862.8" y2="3532.54" xlink:href="#a2504c2f-478a-4260-82dd-37a21595811f"/><linearGradient id="bf5a79eb-9563-40e3-b906-42644b96e750" x1="3890.52" y1="3535.04" x2="3890.52" y2="3535.04" xlink:href="#a2504c2f-478a-4260-82dd-37a21595811f"/><linearGradient id="b86fd626-678d-47ea-9357-d8e6825385b7" x1="4077.38" y1="4240.87" x2="4061.71" y2="4097" gradientTransform="matrix(0.57, 0, 0, -0.57, 1351.96, 6193.37)" gradientUnits="userSpaceOnUse"><stop offset="0" stop-color="#fff"/><stop offset="0.95" stop-color="#d8d8d8"/></linearGradient><linearGradient id="a11d732f-2721-45b4-9d7a-ebf6c175363b" x1="4138.58" y1="4001.25" x2="4128.35" y2="3907.32" xlink:href="#b86fd626-678d-47ea-9357-d8e6825385b7"/><linearGradient id="a87eb846-52d8-4c6a-930c-ace924c2ceef" x1="4309.51" y1="4087.03" x2="4305.01" y2="4045.7" gradientTransform="matrix(0.57, 0, 0, -0.57, 1351.96, 6193.37)" gradientUnits="userSpaceOnUse"><stop offset="0" stop-color="#aacaf3"/><stop offset="0.95" stop-color="#d8d8d8"/></linearGradient><linearGradient id="a46f3f80-02ff-40fc-88b3-204ccbd98c2c" x1="4458" y1="4108.26" x2="4447.57" y2="4012.5" xlink:href="#a87eb846-52d8-4c6a-930c-ace924c2ceef"/><linearGradient id="a480869c-4be3-4ad5-839c-7eb64f17a1bd" x1="4824.84" y1="4005.96" x2="4815.11" y2="3916.62" xlink:href="#b86fd626-678d-47ea-9357-d8e6825385b7"/><linearGradient id="a5ececfe-7ecf-417e-b265-873d4cec0ed9" x1="5155.39" y1="3970.14" x2="5146.65" y2="3889.9" xlink:href="#b86fd626-678d-47ea-9357-d8e6825385b7"/><linearGradient id="ad8d37bb-2301-43c1-9450-0679f2002244" x1="5298.75" y1="4080.44" x2="5289.68" y2="3997.22" xlink:href="#b86fd626-678d-47ea-9357-d8e6825385b7"/><linearGradient id="e8166337-0996-4582-9226-262c445fc343" x1="5391.93" y1="3986.3" x2="5378.75" y2="3865.35" xlink:href="#b86fd626-678d-47ea-9357-d8e6825385b7"/><linearGradient id="e71e1133-1756-489b-b3a5-b050c07bf8c0" x1="4492.77" y1="3842.75" x2="4489.5" y2="3812.68" xlink:href="#b86fd626-678d-47ea-9357-d8e6825385b7"/><linearGradient id="e00ceb67-1def-4f05-8d85-e5ca31eb449e" x1="4682.27" y1="3822.99" x2="4679.7" y2="3799.38" xlink:href="#b86fd626-678d-47ea-9357-d8e6825385b7"/><linearGradient id="bc7d1989-525c-4759-8fc8-dd1ac17961a4" x1="4817.35" y1="3824.04" x2="4814.51" y2="3797.96" xlink:href="#b86fd626-678d-47ea-9357-d8e6825385b7"/><linearGradient id="bdbec460-d14e-4917-9ded-3c79608e264a" x1="5016.44" y1="3835.88" x2="5010.68" y2="3782.95" gradientTransform="matrix(0.57, 0, 0, -0.57, 1351.96, 6193.37)" gradientUnits="userSpaceOnUse"><stop offset="0.01" stop-color="#fff"/><stop offset="0.95" stop-color="#d8d8d8"/></linearGradient><linearGradient id="bae80432-d448-4d3e-99b1-67f4b13bb231" x1="5426.46" y1="3832.74" x2="5417.52" y2="3750.7" xlink:href="#bdbec460-d14e-4917-9ded-3c79608e264a"/><linearGradient id="f3e260b7-868b-438a-81f3-1dcf072bae49" x1="5589.38" y1="3924.89" x2="5583.6" y2="3871.88" xlink:href="#bdbec460-d14e-4917-9ded-3c79608e264a"/><linearGradient id="aac3407e-ab16-4869-ba11-79dffc123ccc" x1="5585.82" y1="4248.73" x2="5565.25" y2="4059.92" xlink:href="#bdbec460-d14e-4917-9ded-3c79608e264a"/><linearGradient id="b5ff5c50-2683-4d51-bd47-1ee718754471" x1="5696.76" y1="4075.38" x2="5683.77" y2="3956.16" xlink:href="#bdbec460-d14e-4917-9ded-3c79608e264a"/><linearGradient id="ae84abe0-091b-4880-8d55-e35da3c4790f" x1="5109.05" y1="3786.56" x2="5103.56" y2="3736.18" xlink:href="#bdbec460-d14e-4917-9ded-3c79608e264a"/><linearGradient id="a8431d21-1bec-4766-a327-9ef94b6f98bb" x1="5503.19" y1="3770.35" x2="5492.46" y2="3671.93" xlink:href="#bdbec460-d14e-4917-9ded-3c79608e264a"/><linearGradient id="a390c654-2804-4264-9dfc-86ce5e673ae1" x1="5017.91" y1="3951.52" x2="5010.15" y2="3880.24" xlink:href="#bdbec460-d14e-4917-9ded-3c79608e264a"/><linearGradient id="f4bb7a55-835a-4984-ab90-41176eaab4bd" x1="4450.14" y1="4075.97" x2="4450.14" y2="4075.97" xlink:href="#b86fd626-678d-47ea-9357-d8e6825385b7"/><linearGradient id="b626f25e-1720-4400-98f9-b6009466daf0" x1="5783" y1="4043.85" x2="5783" y2="4043.85" xlink:href="#bdbec460-d14e-4917-9ded-3c79608e264a"/><linearGradient id="a09b5c8f-4934-4395-bf9f-5da5fd342b77" x1="5780.3" y1="4048.89" x2="5780.3" y2="4048.89" xlink:href="#bdbec460-d14e-4917-9ded-3c79608e264a"/><linearGradient id="b8edb50d-238f-4f72-bb17-d11cb006af7e" x1="4908.74" y1="3839.14" x2="4710.93" y2="2957.11" gradientTransform="matrix(0.57, 0, 0, -0.57, 1351.96, 6193.37)" gradientUnits="userSpaceOnUse"><stop offset="0.14" stop-color="#3d5411"/><stop offset="0.33" stop-color="#82a523"/><stop offset="0.58" stop-color="#4f6916"/></linearGradient><linearGradient id="bd1a793c-ca7e-4951-9df8-599b78e880f5" x1="5786.11" y1="3617.29" x2="5786.11" y2="3617.29" xlink:href="#b8edb50d-238f-4f72-bb17-d11cb006af7e"/></defs><title>bliss</title><g id="b5d9656f-05ed-4c4c-a1e2-f3e34b1a7ba0" data-name="Layer 3"><rect class="a9d8d99a-ddf3-4b4c-b0ae-1a60aabba54d" x="0.28" y="0.22" width="1092.27" height="614.4"/><path class="a4b26c41-d327-4c07-9f2b-5c65ed07f5f0" d="M4604,3807.62" transform="translate(-3549.3 -3788.29)"/><path class="a86f982d-1ca5-4aa4-9894-00729262d6a7" d="M4642,3788.94" transform="translate(-3549.3 -3788.29)"/></g><g id="aa2431fd-f7ee-4cd1-a31e-1906cde3c46c" data-name="Layer 5"><path class="afa4ace7-8667-4dac-9a68-dffc5ed9cb58" d="M3549.58,4038.85s58.6,12.62,61.24,12.62c4.14,0,831.17,63.51,845,60.75s99.41-23.47,117.36-27.61c20.71-3,68.7,9.23,68.7,9.23l-.29,56.93s-799,33.12-1092,33.12Z" transform="translate(-3549.3 -3788.29)"/><path class="a900e6ea-abbb-4cd3-9862-6d0837450fce" d="M4646.19,4088.55" transform="translate(-3549.3 -3788.29)"/><path class="ec4dee38-401b-4502-93f3-443ee46633a6" d="M3549.58,4183.89" transform="translate(-3549.3 -3788.29)"/><path class="ec4dee38-401b-4502-93f3-443ee46633a6" d="M3549.58,4183.89" transform="translate(-3549.3 -3788.29)"/><path class="f5d906f5-a1b9-481c-8fb7-ec864d1a41e0" d="M3549.47,4183.75" transform="translate(-3549.3 -3788.29)"/><path class="ec4dee38-401b-4502-93f3-443ee46633a6" d="M3549.58,4183.89" transform="translate(-3549.3 -3788.29)"/><path class="ec4dee38-401b-4502-93f3-443ee46633a6" d="M3549.58,4183.89" transform="translate(-3549.3 -3788.29)"/><path class="ec4dee38-401b-4502-93f3-443ee46633a6" d="M3549.58,4183.89" transform="translate(-3549.3 -3788.29)"/><path class="ec4dee38-401b-4502-93f3-443ee46633a6" d="M3549.58,4183.89" transform="translate(-3549.3 -3788.29)"/><path class="ec4dee38-401b-4502-93f3-443ee46633a6" d="M3549.58,4183.89" transform="translate(-3549.3 -3788.29)"/><path class="ec4dee38-401b-4502-93f3-443ee46633a6" d="M3549.58,4183.89" transform="translate(-3549.3 -3788.29)"/><path class="f67adca5-862d-44ab-bb57-0bcd5362e5d1" d="M3565.24,4182.32" transform="translate(-3549.3 -3788.29)"/></g><g id="bbffa07c-bdf2-4181-b7cb-ec41180d2ede" data-name="Layer 4"><path class="b98f541b-30cc-4bf3-84e3-14bc437faac0" d="M3549.58,3788.52v20.18s16.08-.32,22.87.08c15.65.92,28.53,9.2,35,16.57s17.49,12.88,39.58,30.37,12.88-4.6,29.46-16.57,12.88,9.21,33.13,11.07,11-4.62,24.86-11.07,19.33,10.13,41.42,11,0-23.93,0-23.93l-35.43-38Z" transform="translate(-3549.3 -3788.29)"/><path class="aaaa30c4-3155-4483-a6d3-79cc23d0f60b" d="M3635,3909.33S3752.85,3925,3763.9,3936s17.49,44.18-8.28,40.5-30.38-27.33-44.18-33.45S3635,3909.33,3635,3909.33Z" transform="translate(-3549.3 -3788.29)"/><path class="bebb7bd2-39a1-47ce-b450-f444e2b55d6f" d="M3773.57,3873.43c3.22.93,9.66,4.61,17,0s28.54-6.44,34.06,0,12.89,20.26-4.6,20.26-25.46-13.38-34.36-12.21S3773.57,3873.43,3773.57,3873.43Z" transform="translate(-3549.3 -3788.29)"/><path class="a8b4fcff-14c8-46b9-8075-cab097d58264" d="M3841.22,3881.47s31.29,8.53,37.74,12.21,35.89,21.17,41.42,21.17,9.2,0,0-11-23-35.8-23.93-41.37-8.29-8.33-21.17-4.65S3842.14,3872,3841.22,3881.47Z" transform="translate(-3549.3 -3788.29)"/><path class="e5b3b1c7-340f-4ea8-871c-d1006060fcd4" d="M4033.59,3914.85s6.45,16.86,21.17,28.22,19.33,19.65,33.14,20.57,28.53-4.61,42.34,0,20.25,14.94,23.93.1-.92-40.6-15.65-43.36-26.4-6.45-44-1.84-.15,12.88-30.52,4.6Z" transform="translate(-3549.3 -3788.29)"/><path class="a3fa0e8e-c39d-4085-b482-3407608c7aae" d="M4251.74,3961.8c.92,5.52,8.28,9.77,20.25,15s28.54,7.65,35,0,6.44-12.25-5.53-22.37-13.8-19.33-13.8-19.33-17.49-.64-19.33,8S4251.74,3961.8,4251.74,3961.8Z" transform="translate(-3549.3 -3788.29)"/><path class="a2ed7151-5892-446d-bb3e-c8bcccf0ccdc" d="M4295,3909.33s13.8,6.45,34.06,5.52,27.61-5.52,53.38-5.52,33.14,7.36,42.34,5.52,16.57-16.56,0-25.77-48.13-18.41-60-14.72-10-10-21-.84S4275.48,3904.37,4295,3909.33Z" transform="translate(-3549.3 -3788.29)"/><path class="b8dd384e-20f4-4213-8b06-749cb87b1e2b" d="M4340.1,3935.1s7.36,30.35,17.49,36.35,18.41,28.08,57.06,18.88,80.08-24.86,80.08-38.66-7.36-24.87-28.54-16.58-33.13,3.67-40.5,0S4355.75,3923.11,4340.1,3935.1Z" transform="translate(-3549.3 -3788.29)"/><path class="b666f204-3b34-4c3b-b6e2-186baa9a8fd1" d="M3831,4010.58s117,21.17,126.18,18.41,25.77-9.08,25.77-9.08-19.33-8.41-49.7-9.33S3831,4010.58,3831,4010.58Z" transform="translate(-3549.3 -3788.29)"/><path class="a846e5ba-b944-4459-9bc1-6446f5e88b2b" d="M3994.93,4029.24s34.06,6.69,38.66,0-16.56-13.3-24.85-9.54A49.58,49.58,0,0,0,3994.93,4029.24Z" transform="translate(-3549.3 -3788.29)"/><path class="f666d84d-b95c-4777-a348-edcd94a30251" d="M4053.84,4025.41s66.27,11.86,73.64,11-10.13-15.81-20.26-16.65-53.38-7.9-53.38-1.1Z" transform="translate(-3549.3 -3788.29)"/><path class="ac2bb531-6f0d-4889-885f-434d1075459c" d="M4196.51,4010.17s-51.55,5.51-36.82,19.07,78.24,15.4,86.53,11.72,3.68-18.57-5.53-21.25S4196.51,4010.17,4196.51,4010.17Z" transform="translate(-3549.3 -3788.29)"/><path class="a623eb7b-04cb-4147-8ce3-d84f37ba31f9" d="M4600.13,4032.21c-7,6.13-8.29-4.6-17.95,0s-20.71,6.44-26.69,6.44-19.8-3.77-22.55-4.41-13.35-1.2-22.56,0-12.42,4.51-23.47,2.16-12.88-3.81-19.33-2.16-19.79-12.87-26.69-8.83-6,6.8-15.19,6.8-24.39-9-28.54-7.51-9.66,7.05-11.5,7.51-11.05-8.87-17.49-5.82-.46,4.57-7.82,5.19-6,2.5-20.25-2.34-16.11-11-20.25-9.54-8.29,5.23-18.87,6.34-19.48-7.43-19.48-7.43-13.66-7.62-15.5,0-3.68,12.68,0,15.9,11.75,11.14,25,8.1,26.58-5.34,33.48-4,3.68,8.28,22.09,6,18.87-4.61,24.39-4.61,5.07-2.2,10.59,2.58,7.36,7.08,14.73,5.25,15.19-4.05,18.41-5.25,2.3-4.78,12,0,4.6,8.35,14.73,5.88,9.66-5.6,14.73-5.88,9.2,1.56,10.58,3.4,4.61,8.75,6.91,9.21,11.5-1.85,17.94-4.61,13.35-2.75,18.41-2.75,14.27,7.36,20.26,4.6,4.14-5.07,12.42-5.53,11-2.29,16.57.93,8.28,12,15.19,12.42,15.18-1.84,23-7.36,11.5-7.27,11.5-10.31,2.76-10.86,0-10.4S4603.81,4029,4600.13,4032.21Z" transform="translate(-3549.3 -3788.29)"/><path class="e2052ea4-de4b-4d81-addc-932f3e1c4ad3" d="M4514.53,3960.7s1.84.18,5.52,2.48,4.14-2.19,11.5-2.48,12,4.29,13.81,10.75,0,21.1,0,21.1-5.52-9.12-11-13.26-8.28-6.9-12.42-6-6.45,3.22-7.36.92S4514.53,3960.7,4514.53,3960.7Z" transform="translate(-3549.3 -3788.29)"/><path class="b26f9cf1-06f7-4e60-9160-213901b357a3" d="M4460.6,3788.52s11.22,1.91,4.31,10.65-1.84,8.74-16.1,6.91-20.25-.92-21.17,4.14,4.14,11.5-5.52,11.5-14.27,1.38-15.19,4.14-4.15,3.68,1.84,5.53,7.36-1.39,18.41-2.76,35-2.12,17,3.31-23,5.43-23.48,7.27-17.94-1.84,4.14,4.61,26.24,5.52,35.9,9.66,2.76-1.84,12,8.29-.93,23.93,21.62,15.65,36.36-16.57,30.84-25.77-11.45-17.49-11.45-17.49-3.74-1.84-6.5-3.22-16.11-8.75,1.84-7.36,4.55.46,20.69,8.28,26.72,12,32.24,10.13,3.68-3.22,10.12-4.61,5.53-8.74,17.49,1.39,16.72,14.72,20.1,14.26,7.51,19.33,22.7-3.68c3.8-5.75,9.41-13.18,9.41-13.18v-47.64H4460.6Z" transform="translate(-3549.3 -3788.29)"/><path class="b7c73c59-da4a-4a1b-951a-547b3aca9bdf" d="M4554.11,3902.76c-2.76,0-10.59,2.3-13.35,9.2s1.64,11.05,5.42,12,7.72-1,0,4.8-25.56,6.25-6.28,9,23-1.87,28.94-2.78,5.06-.47,11.5,0,8.28,17,6.45.48-1.87-20.71.67-23.94,1.17-5.52,9-2.76,11.66,3.69,13.66,8.75,7.51,10.52,11.2,11.24,11.66-.26,16.1,0c1.65.1,4.44.13,4.44.13v-36.67s-5.31-2.1-8.12-2.32a73.78,73.78,0,0,0-14.27,0c-6.9.47-7.36.47-12.88-2.75s-6.45-4.6-12-7.13-3.68-9.44-10.58-2.54-6.45,6-11.51,11.05-2.3,6.44-10.59,7.36-13.55-.92-15.75,2.3-6.8,1.38-2.66,6.9S4554.11,3902.76,4554.11,3902.76Z" transform="translate(-3549.3 -3788.29)"/><path class="becd3150-c366-4c6b-9af8-16ec9653dc55" d="M4205.72,4055.68c1.38,0,8.28-4.6,17-6.9s20.15-7.73,27.8-6.17,12.7,1.56,20.53,2.48,20.25.92,23,0,7.36-1.84,10.59-.46,4.14-.46,3.68,4.14-1.84,9.78-3.22,11.57-5.06,5.92-10.13,6.38-4.9.47-13.5-.92-31-1.38-31-1.38-12.15,1.84-18.59.92-9.67-5-15.19-5S4205.72,4055.68,4205.72,4055.68Z" transform="translate(-3549.3 -3788.29)"/><path class="ac1b2d41-7615-4549-833e-b3cc736e6243" d="M4320,4060.35c3.22-1,8.29-3.92,17.49-5.67s21.17-4,23-3.59,5.53,3.59,5.53,3.59-.92,5.27,4.14,5.67,5.06,1,13.35,0,11,1,16.56,0,1.38-5,8.75,0,7.36,7.86,15.65,6.67,17-3,17-3,4.6,0,13.35.46,8.74,1,14.27,2.58-6.91-1.49,11.5.27,43.09,5.44,50.31,3.59,12.74.55,19.64.5,2.3-.87,15.19,0,9.66.5,17,0,37.28,1,43.72,0c5.41-.8,15.31-5.58,15.31-5.58v26.7a119.42,119.42,0,0,0-13.32,1.24c-4.3.61-10,4.73-14.88,2-13.81-7.82-11-9.2-21.63-12.42s-13.35-3.68-21.63-3.22-7.36.46-15.65,2.3,1.84,2.76-13.34,1.84-17.49-.92-24.4-2.29,2.3-6.91-6.9-1.39-3.22,2.3-10.59,6.45-3.68,5.06-12,5.52-3.22.46-15.19-.46-10.13-3.68-22.09-3.22-8.74-.92-18,2.3-14,5.16-27,4.88-17.64-1.2-19.94-2.58-3.22-5.52-9.21-6.44-7.51-3.22-13.65-.92-9.36,6.44-17.19,3.22,3.22,0-13.34-4.61-17.49-5.52-16.11-7.36S4320,4060.35,4320,4060.35Z" transform="translate(-3549.3 -3788.29)"/><path class="a41fe7ea-e4e8-4040-9932-2d919d530625" d="M4162.91,3943.15s8.29-4.82,26.7,3,32.67,7.47,41.88,14.55,22.55,5.42,13.8,15.92-12.42,12.79-23.93,11.41-26.69-6.35-26.69-6.35-7.82-8.38-15.19-7.92-3.68,6.45-10.59.46-9.2-8.63-8.28-13.52S4162.91,3943.15,4162.91,3943.15Z" transform="translate(-3549.3 -3788.29)"/><path class="b25ae824-6800-4af9-8930-2b0fbfc05430" d="M3883.6,3874.59" transform="translate(-3549.3 -3788.29)"/><path class="e1015070-33e3-47d7-9415-599bcab09b1c" d="M4641.85,3892.87" transform="translate(-3549.3 -3788.29)"/><path class="e1015070-33e3-47d7-9415-599bcab09b1c" d="M4641.85,3892.87" transform="translate(-3549.3 -3788.29)"/><path class="e1015070-33e3-47d7-9415-599bcab09b1c" d="M4641.85,3892.87" transform="translate(-3549.3 -3788.29)"/><path class="b33b0b4f-d572-4c29-b184-6821376cf472" d="M4640.31,3890" transform="translate(-3549.3 -3788.29)"/><path class="e1015070-33e3-47d7-9415-599bcab09b1c" d="M4641.85,3892.87" transform="translate(-3549.3 -3788.29)"/><path class="e1015070-33e3-47d7-9415-599bcab09b1c" d="M4641.85,3892.87" transform="translate(-3549.3 -3788.29)"/><path class="e1015070-33e3-47d7-9415-599bcab09b1c" d="M4641.85,3892.87" transform="translate(-3549.3 -3788.29)"/><path class="e1015070-33e3-47d7-9415-599bcab09b1c" d="M4641.85,3892.87" transform="translate(-3549.3 -3788.29)"/></g><path class="b056813c-3bf0-48f8-bced-f575fd09165d" d="M3740.89,4042.8" transform="translate(-3549.3 -3788.29)"/><path class="e2398209-af79-40d8-8585-3b13df74ea5b" d="M3549.3,4052s135.16-24.85,221.68-25.77,324.92,9.21,453.78,33.14c111.93,20.79,417.09,61.53,417.09,61.53v282.06H3549.58Z" transform="translate(-3549.3 -3788.29)"/><line class="b93e4803-8948-4741-be33-1c6c884ee8dc" x1="0.56" y1="19.54" x2="0.56" y2="0.51"/><path class="ba38d9e3-1387-4d19-978b-498160d8c59f" d="M4643.62,4135.53" transform="translate(-3549.3 -3788.29)"/></svg>