<svg xmlns="http://www.w3.org/2000/svg" xmlns:xlink="http://www.w3.org/1999/xlink" viewBox="0 0 512.54 325.21"><defs><style>.b3400f51-0ad6-4377-983e-44dd222bbdde{fill:url(#edffe57f-af70-4643-bc9b-76ef7c715053);}.adf8746d-ba91-4b13-9700-cad007617be2{fill:url(#ad3fea94-8dac-4bc3-a4a8-b0e49bdc33c0);}.be466f73-c71c-45ed-bca3-a916c2498a9f{fill:url(#bd2e24df-dac3-4701-bda9-75b3e002c0ff);}.afb74246-ca14-42f7-8c41-467984f8ff1f{fill:url(#b87661b9-b41d-4277-ada9-d05a0bbc6faf);}.fc4fbfff-0453-4a27-9142-219e36086baa{fill:url(#abdb1090-3269-412b-bb39-471ccc16fa53);}.ae81a36c-9fba-44d3-9135-237719b51893{fill:url(#f8f1807e-a37c-403c-b1f2-76e4b80bbead);}.ae9b58d6-86b6-40d4-a463-5251567d2135{fill:url(#bcc8c69b-ffad-47af-9967-d74eeba043ec);}.b8351ff0-1d6f-47c8-96cb-038d48a12093{fill:url(#a8e2f079-92bf-4035-a83e-4c7b054e101c);}.a54b346c-0fde-4d59-9ea4-fca66f5796e3{fill:url(#b55ae202-52b0-4d27-acd3-e8bdb5d39a47);}.b7e5f914-bf7c-4447-b429-f1be580cd5cc{fill:url(#a3c54e73-5be4-4949-a322-7eaec56ea6cd);}.b982b64f-776a-4232-806f-e718d5a690f0{fill:url(#a811efa7-d8cb-4c9d-b62c-de570aa83609);}.bf6551f6-fb57-4bc6-a89f-75ea8a337311{fill:url(#e0a47d5d-e41d-43f3-a0d9-b21aab256ade);}.fb6154f0-28fb-4d79-9cd1-e576bc514591{fill:url(#ab699839-b495-49f6-abea-82219c77ab9c);}.a7a7df7f-1de5-461a-82a4-51ea3383d41d{fill:url(#a7e0b884-d5e3-461b-8795-168906acdb99);}.ba4308f2-46e9-4d31-a722-c6b572fb403a{fill:url(#a80ffbd2-a0b8-42cf-a9a3-09afd1c3b5f2);}.a4220eed-b327-402d-9370-82db90727348{fill:url(#ff240be3-4b34-4beb-bd85-a3230e1d16ae);}.ba0cbfcb-bd61-4d49-a6bb-178f2a736e18{fill:url(#b4c709ee-2e0c-434e-a530-eb50de0fcf00);}.f4f85a28-965e-4cde-a40b-3e6a361f1370{fill:url(#b1f2bba7-3d0f-4d1d-8b5e-afd083d67a18);}.a4e11861-2290-4f6f-a956-cd6c28bd3681{fill:url(#add03a02-d6e1-4ce7-abf1-7b9dfa856fcc);}.f7d9d22c-a08e-44f0-a491-1d0ef15a417c{fill:url(#a4aee566-340f-426e-a71b-2fe242072067);}.a665f10f-5d10-4965-9b40-222f7d9fdeb6{fill:url(#a1c2dc3a-eaa5-4abe-aead-23271c2344c7);}.f634bbb2-8eb3-4400-a63c-41e0f5eae835{fill:url(#afb43cef-4036-4650-a9b1-40391134f52b);}.b911f3da-18f6-4f39-a1e2-ec0aef3fc32e{fill:url(#a5d1f061-eb0c-40fc-90b4-0bd886b36cff);}.f2f18194-6354-488e-b381-e28167125143{fill:url(#e45b6f25-6347-43e2-ba93-4576d0788e2a);}.e39e84bf-4d5c-44a7-88a6-8d0d12079f8e{fill:url(#baa6a3ac-9e1f-45ac-874c-f57c731c9e2b);}.ec1b2b49-8a41-4b86-bfb5-02cc88bfa4b9{fill:url(#f136c1ea-af25-4c55-ade4-5a97d6521268);}.e04f2fcd-0cde-49a8-9efb-ab1eb72f4683{fill:url(#b27000da-aadd-49fe-88e0-9cdde7180a31);}.f8f275e7-0ec4-4e63-a891-83e379f7e8b8{fill:url(#ab8a4289-8df7-4401-8619-ba9aeaaea2f0);}.a3cd083d-109b-4217-8689-a0159e6e0a61{fill:url(#ba7d5e22-2d90-427c-8289-bb58d1b50b95);}.b25915b1-2112-4b2e-81d3-36e270a82f27{fill:url(#e7af0e92-58d8-481b-b118-6bb7c9ac5048);}.b4095898-55ef-4208-9572-50995d0168ba,.b8c4a84f-323e-4391-b227-5d8c7c5b0a2d,.bd057da2-2b8f-4a20-87a7-c7ed086a3007,.fe435a5e-1272-48bf-b1c8-5d74f67d1668{fill:#fff;}.bd057da2-2b8f-4a20-87a7-c7ed086a3007{stroke:#000;stroke-miterlimit:10;}.a7c8619b-c92e-4fc1-a6af-76b193cac12b{fill:url(#e861c6d2-5d72-4774-b0db-320aa77d39fb);}.b940b1cb-57d5-4481-91f5-742c8612d86e{fill:none;}.bd707e85-e2ca-4069-a8cb-b28947a396d0{fill:url(#eff6f09d-d13b-40c4-9d1d-b1a8f7691df6);}.ade86052-a961-46b0-83a6-22ec1f11b114{opacity:0.63;}.b8c4a84f-323e-4391-b227-5d8c7c5b0a2d{opacity:0.5;}.b4095898-55ef-4208-9572-50995d0168ba{opacity:0.36;}</style><linearGradient id="edffe57f-af70-4643-bc9b-76ef7c715053" x1="11278.49" y1="3251.45" x2="11213.51" y2="3847.94" gradientTransform="translate(-6154.17 -1844.13) scale(0.57)" gradientUnits="userSpaceOnUse"><stop offset="0" stop-color="#aacaf3"/><stop offset="0.95" stop-color="#1d57df"/></linearGradient><linearGradient id="ad3fea94-8dac-4bc3-a4a8-b0e49bdc33c0" x1="11663.07" y1="3316.85" x2="11663.07" y2="3316.85" gradientTransform="translate(788.79 5099.38) scale(0.57)" xlink:href="#edffe57f-af70-4643-bc9b-76ef7c715053"/><linearGradient id="bd2e24df-dac3-4701-bda9-75b3e002c0ff" x1="11694.29" y1="3301.51" x2="11694.29" y2="3301.51" gradientTransform="translate(788.79 5099.38) scale(0.57)" xlink:href="#edffe57f-af70-4643-bc9b-76ef7c715053"/><linearGradient id="b87661b9-b41d-4277-ada9-d05a0bbc6faf" x1="11124.78" y1="3319.27" x2="11509.32" y2="4177.48" gradientTransform="translate(788.79 5099.38) scale(0.57)" gradientUnits="userSpaceOnUse"><stop offset="0.43" stop-color="#3d57ac"/><stop offset="1" stop-color="#6b81bf"/></linearGradient><linearGradient id="abdb1090-3269-412b-bb39-471ccc16fa53" x1="11697.73" y1="3547.6" x2="11697.73" y2="3547.6" gradientTransform="translate(788.79 5099.38) scale(0.57)" gradientUnits="userSpaceOnUse"><stop offset="0.5" stop-color="#3d57ac"/><stop offset="0.99" stop-color="#6b81bf"/></linearGradient><linearGradient id="f8f1807e-a37c-403c-b1f2-76e4b80bbead" x1="10797.01" y1="3625.91" x2="10797.01" y2="3625.91" xlink:href="#abdb1090-3269-412b-bb39-471ccc16fa53"/><linearGradient id="bcc8c69b-ffad-47af-9967-d74eeba043ec" x1="10796.92" y1="3625.79" x2="10796.92" y2="3625.79" xlink:href="#abdb1090-3269-412b-bb39-471ccc16fa53"/><linearGradient id="a8e2f079-92bf-4035-a83e-4c7b054e101c" x1="10809.87" y1="3624.62" x2="10809.87" y2="3624.62" xlink:href="#abdb1090-3269-412b-bb39-471ccc16fa53"/><linearGradient id="b55ae202-52b0-4d27-acd3-e8bdb5d39a47" x1="10897.66" y1="3290.59" x2="10890.32" y2="3357.94" gradientTransform="translate(788.79 5099.38) scale(0.57)" gradientUnits="userSpaceOnUse"><stop offset="0" stop-color="#fff"/><stop offset="0.95" stop-color="#d8d8d8"/></linearGradient><linearGradient id="a3c54e73-5be4-4949-a322-7eaec56ea6cd" x1="10926.2" y1="3402.76" x2="10921.41" y2="3446.74" xlink:href="#b55ae202-52b0-4d27-acd3-e8bdb5d39a47"/><linearGradient id="a811efa7-d8cb-4c9d-b62c-de570aa83609" x1="11006.09" y1="3362.58" x2="11003.98" y2="3381.93" gradientTransform="translate(788.79 5099.38) scale(0.57)" gradientUnits="userSpaceOnUse"><stop offset="0" stop-color="#aacaf3"/><stop offset="0.95" stop-color="#d8d8d8"/></linearGradient><linearGradient id="e0a47d5d-e41d-43f3-a0d9-b21aab256ade" x1="11075.49" y1="3352.63" x2="11070.61" y2="3397.46" xlink:href="#a811efa7-d8cb-4c9d-b62c-de570aa83609"/><linearGradient id="ab699839-b495-49f6-abea-82219c77ab9c" x1="11246.89" y1="3400.49" x2="11242.33" y2="3442.32" xlink:href="#b55ae202-52b0-4d27-acd3-e8bdb5d39a47"/><linearGradient id="a7e0b884-d5e3-461b-8795-168906acdb99" x1="11401.36" y1="3417.23" x2="11397.27" y2="3454.79" xlink:href="#b55ae202-52b0-4d27-acd3-e8bdb5d39a47"/><linearGradient id="a80ffbd2-a0b8-42cf-a9a3-09afd1c3b5f2" x1="11468.35" y1="3365.57" x2="11464.1" y2="3404.54" xlink:href="#b55ae202-52b0-4d27-acd3-e8bdb5d39a47"/><linearGradient id="ff240be3-4b34-4beb-bd85-a3230e1d16ae" x1="11511.88" y1="3409.64" x2="11505.71" y2="3466.26" xlink:href="#b55ae202-52b0-4d27-acd3-e8bdb5d39a47"/><linearGradient id="b4c709ee-2e0c-434e-a530-eb50de0fcf00" x1="11091.7" y1="3476.93" x2="11090.17" y2="3491.01" xlink:href="#b55ae202-52b0-4d27-acd3-e8bdb5d39a47"/><linearGradient id="b1f2bba7-3d0f-4d1d-8b5e-afd083d67a18" x1="11180.25" y1="3486.16" x2="11179.05" y2="3497.22" xlink:href="#b55ae202-52b0-4d27-acd3-e8bdb5d39a47"/><linearGradient id="add03a02-d6e1-4ce7-abf1-7b9dfa856fcc" x1="11243.38" y1="3485.66" x2="11242.05" y2="3497.87" xlink:href="#b55ae202-52b0-4d27-acd3-e8bdb5d39a47"/><linearGradient id="a4aee566-340f-426e-a71b-2fe242072067" x1="11336.41" y1="3480.1" x2="11333.71" y2="3504.88" gradientTransform="translate(788.79 5099.38) scale(0.57)" gradientUnits="userSpaceOnUse"><stop offset="0.01" stop-color="#fff"/><stop offset="0.95" stop-color="#d8d8d8"/></linearGradient><linearGradient id="a1c2dc3a-eaa5-4abe-aead-23271c2344c7" x1="11528.02" y1="3481.53" x2="11523.84" y2="3519.94" xlink:href="#a4aee566-340f-426e-a71b-2fe242072067"/><linearGradient id="afb43cef-4036-4650-a9b1-40391134f52b" x1="11604.14" y1="3438.37" x2="11601.43" y2="3463.19" xlink:href="#a4aee566-340f-426e-a71b-2fe242072067"/><linearGradient id="a5d1f061-eb0c-40fc-90b4-0bd886b36cff" x1="11602.5" y1="3286.76" x2="11592.87" y2="3375.15" xlink:href="#a4aee566-340f-426e-a71b-2fe242072067"/><linearGradient id="e45b6f25-6347-43e2-ba93-4576d0788e2a" x1="11654.33" y1="3367.9" x2="11648.25" y2="3423.72" xlink:href="#a4aee566-340f-426e-a71b-2fe242072067"/><linearGradient id="baa6a3ac-9e1f-45ac-874c-f57c731c9e2b" x1="11379.67" y1="3503.18" x2="11377.1" y2="3526.76" xlink:href="#a4aee566-340f-426e-a71b-2fe242072067"/><linearGradient id="f136c1ea-af25-4c55-ade4-5a97d6521268" x1="11563.74" y1="3510.72" x2="11558.72" y2="3556.79" xlink:href="#a4aee566-340f-426e-a71b-2fe242072067"/><linearGradient id="b27000da-aadd-49fe-88e0-9cdde7180a31" x1="11337.1" y1="3425.96" x2="11333.47" y2="3459.33" xlink:href="#a4aee566-340f-426e-a71b-2fe242072067"/><linearGradient id="ab8a4289-8df7-4401-8619-ba9aeaaea2f0" x1="11071.36" y1="3371.86" x2="11071.36" y2="3371.86" xlink:href="#b55ae202-52b0-4d27-acd3-e8bdb5d39a47"/><linearGradient id="ba7d5e22-2d90-427c-8289-bb58d1b50b95" x1="11694.16" y1="3386.87" x2="11694.16" y2="3386.87" xlink:href="#a4aee566-340f-426e-a71b-2fe242072067"/><linearGradient id="e7af0e92-58d8-481b-b118-6bb7c9ac5048" x1="11692.9" y1="3384.52" x2="11692.9" y2="3384.52" xlink:href="#a4aee566-340f-426e-a71b-2fe242072067"/><linearGradient id="e861c6d2-5d72-4774-b0db-320aa77d39fb" x1="11286.62" y1="3478.23" x2="11194.01" y2="3891.18" gradientTransform="translate(788.79 5099.38) scale(0.57)" gradientUnits="userSpaceOnUse"><stop offset="0.14" stop-color="#3d5411"/><stop offset="0.33" stop-color="#82a523"/><stop offset="0.58" stop-color="#4f6916"/></linearGradient><linearGradient id="eff6f09d-d13b-40c4-9d1d-b1a8f7691df6" x1="11695.62" y1="3586.18" x2="11695.62" y2="3586.18" xlink:href="#e861c6d2-5d72-4774-b0db-320aa77d39fb"/></defs><title>Untitled-2</title><g id="aa6343aa-b44d-4321-9df4-e2188b5872da" data-name="Layer 2"><g id="ffdc95ad-ba56-40f9-9568-f9c50491b708" data-name="b5d9656f-05ed-4c4c-a1e2-f3e34b1a7ba0"><rect class="b3400f51-0ad6-4377-983e-44dd222bbdde" x="0.13" y="37.53" width="511.38" height="287.65"/><path class="adf8746d-ba91-4b13-9700-cad007617be2" d="M7436.75,6990" transform="translate(-6942.96 -6943.5)"/><path class="be466f73-c71c-45ed-bca3-a916c2498a9f" d="M7454.54,6981.23" transform="translate(-6942.96 -6943.5)"/></g><g id="f3c998d7-7c19-4b0b-b953-7e4009f616a1" data-name="aa2431fd-f7ee-4cd1-a31e-1906cde3c46c"><path class="afb74246-ca14-42f7-8c41-467984f8ff1f" d="M6943.09,7098.24s27.44,5.91,28.67,5.91c1.94,0,389.14,29.73,395.61,28.44s46.54-11,54.95-12.93c9.69-1.4,32.16,4.32,32.16,4.32l-.13,26.66s-374.08,15.5-511.25,15.5Z" transform="translate(-6942.96 -6943.5)"/><path class="fc4fbfff-0453-4a27-9142-219e36086baa" d="M7456.5,7121.51" transform="translate(-6942.96 -6943.5)"/><path class="ae81a36c-9fba-44d3-9135-237719b51893" d="M6943.09,7166.14" transform="translate(-6942.96 -6943.5)"/><path class="ae81a36c-9fba-44d3-9135-237719b51893" d="M6943.09,7166.14" transform="translate(-6942.96 -6943.5)"/><path class="ae9b58d6-86b6-40d4-a463-5251567d2135" d="M6943,7166.08" transform="translate(-6942.96 -6943.5)"/><path class="ae81a36c-9fba-44d3-9135-237719b51893" d="M6943.09,7166.14" transform="translate(-6942.96 -6943.5)"/><path class="ae81a36c-9fba-44d3-9135-237719b51893" d="M6943.09,7166.14" transform="translate(-6942.96 -6943.5)"/><path class="ae81a36c-9fba-44d3-9135-237719b51893" d="M6943.09,7166.14" transform="translate(-6942.96 -6943.5)"/><path class="ae81a36c-9fba-44d3-9135-237719b51893" d="M6943.09,7166.14" transform="translate(-6942.96 -6943.5)"/><path class="ae81a36c-9fba-44d3-9135-237719b51893" d="M6943.09,7166.14" transform="translate(-6942.96 -6943.5)"/><path class="ae81a36c-9fba-44d3-9135-237719b51893" d="M6943.09,7166.14" transform="translate(-6942.96 -6943.5)"/><path class="b8351ff0-1d6f-47c8-96cb-038d48a12093" d="M6950.42,7165.41" transform="translate(-6942.96 -6943.5)"/></g><g id="eef1049c-c9c3-41c7-8b55-cd32c497fab1" data-name="bbffa07c-bdf2-4181-b7cb-ec41180d2ede"><path class="a54b346c-0fde-4d59-9ea4-fca66f5796e3" d="M6943.09,6981v9.45s7.53-.15,10.71,0a24.59,24.59,0,0,1,16.39,7.76c3,3.45,8.18,6,18.53,14.22s6-2.15,13.79-7.76,6,4.31,15.51,5.18,5.15-2.16,11.64-5.18,9.05,4.74,19.39,5.15,0-11.2,0-11.2l-16.59-17.79Z" transform="translate(-6942.96 -6943.5)"/><path class="b7e5f914-bf7c-4447-b429-f1be580cd5cc" d="M6983.08,7037.6s55.18,7.33,60.35,12.48,8.19,20.69-3.88,19-14.22-12.8-20.68-15.66S6983.08,7037.6,6983.08,7037.6Z" transform="translate(-6942.96 -6943.5)"/><path class="b982b64f-776a-4232-806f-e718d5a690f0" d="M7048,7020.79c1.51.44,4.52,2.16,8,0s13.36-3,15.94,0,6,9.49-2.15,9.49-11.92-6.27-16.09-5.72S7048,7020.79,7048,7020.79Z" transform="translate(-6942.96 -6943.5)"/><path class="bf6551f6-fb57-4bc6-a89f-75ea8a337311" d="M7079.63,7024.56s14.65,4,17.67,5.71,16.8,9.91,19.39,9.91,4.31,0,0-5.15-10.77-16.76-11.2-19.37-3.88-3.9-9.91-2.17S7080.06,7020.12,7079.63,7024.56Z" transform="translate(-6942.96 -6943.5)"/><path class="fb6154f0-28fb-4d79-9cd1-e576bc514591" d="M7169.69,7040.18a34,34,0,0,0,9.92,13.21c6.89,5.32,9.05,9.2,15.51,9.64s13.36-2.16,19.82,0,9.48,7,11.21,0-.43-19-7.33-20.3-12.36-3-20.6-.86-.07,6-14.29,2.15Z" transform="translate(-6942.96 -6943.5)"/><path class="a7a7df7f-1de5-461a-82a4-51ea3383d41d" d="M7271.83,7062.16c.43,2.59,3.87,4.58,9.48,7s13.36,3.58,16.38,0,3-5.74-2.58-10.48-6.47-9.05-6.47-9.05-8.18-.3-9.05,3.75S7271.83,7062.16,7271.83,7062.16Z" transform="translate(-6942.96 -6943.5)"/><path class="ba4308f2-46e9-4d31-a722-c6b572fb403a" d="M7292.08,7037.6a36.85,36.85,0,0,0,15.95,2.58c9.48-.43,12.92-2.58,25-2.58s15.51,3.44,19.82,2.58,7.76-7.75,0-12.06-22.53-8.62-28.09-6.89-4.68-4.69-9.83-.4S7282.94,7035.28,7292.08,7037.6Z" transform="translate(-6942.96 -6943.5)"/><path class="a4220eed-b327-402d-9370-82db90727348" d="M7313.2,7049.66s3.44,14.21,8.18,17,8.62,13.15,26.72,8.84,37.49-11.64,37.49-18.1-3.45-11.64-13.36-7.76-15.51,1.72-19,0S7320.52,7044.05,7313.2,7049.66Z" transform="translate(-6942.96 -6943.5)"/><path class="ba0cbfcb-bd61-4d49-a6bb-178f2a736e18" d="M7074.85,7085s54.77,9.91,59.07,8.62,12.07-4.25,12.07-4.25-9.05-3.94-23.27-4.37S7074.85,7085,7074.85,7085Z" transform="translate(-6942.96 -6943.5)"/><path class="f4f85a28-965e-4cde-a40b-3e6a361f1370" d="M7151.59,7093.74s15.95,3.13,18.1,0-7.75-6.23-11.63-4.47A23.25,23.25,0,0,0,7151.59,7093.74Z" transform="translate(-6942.96 -6943.5)"/><path class="a4e11861-2290-4f6f-a956-cd6c28bd3681" d="M7179.18,7091.94s31,5.56,34.47,5.15-4.74-7.4-9.48-7.79-25-3.7-25-.52Z" transform="translate(-6942.96 -6943.5)"/><path class="f7d9d22c-a08e-44f0-a491-1d0ef15a417c" d="M7246,7084.81s-24.13,2.58-17.24,8.93,36.63,7.21,40.51,5.48,1.73-8.69-2.59-9.94S7246,7084.81,7246,7084.81Z" transform="translate(-6942.96 -6943.5)"/><path class="a665f10f-5d10-4965-9b40-222f7d9fdeb6" d="M7434.94,7095.13c-3.28,2.87-3.89-2.16-8.41,0a32.41,32.41,0,0,1-12.49,3c-2.8,0-9.27-1.76-10.56-2.06a41.41,41.41,0,0,0-10.56,0c-4.32.56-5.82,2.11-11,1s-6-1.78-9.05-1-9.27-6-12.5-4.14-2.81,3.19-7.11,3.19-11.42-4.22-13.36-3.52-4.52,3.3-5.38,3.52-5.18-4.15-8.19-2.73-.22,2.14-3.66,2.43-2.81,1.17-9.48-1.09-7.55-5.15-9.49-4.47-3.88,2.45-8.83,3-9.12-3.48-9.12-3.48-6.4-3.57-7.26,0-1.72,5.94,0,7.45,5.5,5.21,11.71,3.79,12.44-2.5,15.67-1.88,1.73,3.88,10.34,2.81,8.84-2.15,11.42-2.15,2.38-1,5,1.2,3.45,3.32,6.9,2.46,7.11-1.89,8.62-2.46,1.07-2.23,5.61,0,2.16,3.91,6.9,2.76,4.52-2.63,6.9-2.76,4.3.73,4.95,1.59,2.16,4.1,3.24,4.32,5.38-.87,8.39-2.16a21.6,21.6,0,0,1,8.62-1.29c2.37,0,6.68,3.45,9.49,2.15s1.94-2.37,5.81-2.58,5.15-1.08,7.76.43,3.88,5.62,7.11,5.82a17.35,17.35,0,0,0,10.77-3.45c3.66-2.58,5.39-3.4,5.39-4.83s1.29-5.08,0-4.87S7436.66,7093.63,7434.94,7095.13Z" transform="translate(-6942.96 -6943.5)"/><path class="f634bbb2-8eb3-4400-a63c-41e0f5eae835" d="M7394.86,7061.65a6.92,6.92,0,0,1,2.58,1.16c1.73,1.08,1.94-1,5.39-1.16s5.62,2,6.46,5,0,9.88,0,9.88-2.58-4.27-5.15-6.21-3.87-3.23-5.81-2.81-3,1.51-3.45.43S7394.86,7061.65,7394.86,7061.65Z" transform="translate(-6942.96 -6943.5)"/><path class="b911f3da-18f6-4f39-a1e2-ec0aef3fc32e" d="M7369.61,6981s5.25.89,2,5-.86,4.1-7.54,3.24-9.48-.43-9.91,1.94,1.94,5.38-2.58,5.38-6.69.65-7.12,1.94-1.94,1.72.87,2.59,3.44-.65,8.61-1.29,16.39-1,8,1.55-10.76,2.54-11,3.4-8.4-.86,1.94,2.16,12.28,2.58,16.81,4.52,1.29-.86,5.61,3.88-.43,11.21,10.13,7.33,17-7.76,14.44-12.07-5.37-8.18-5.37-8.18l-3-1.51c-1.29-.65-7.54-4.1.86-3.45s2.13.22,9.69,3.88,12.51,5.62,15.09,4.74,1.73-1.51,4.74-2.16,2.59-4.09,8.19.65,7.83,6.9,9.41,6.68,3.52,9.05,10.63-1.72c1.78-2.69,4.4-6.17,4.4-6.17V6981Z" transform="translate(-6942.96 -6943.5)"/><path class="f2f18194-6354-488e-b381-e28167125143" d="M7413.39,7034.52a7.52,7.52,0,0,0-6.25,4.31c-1.29,3.23.77,5.17,2.54,5.62s3.61-.47,0,2.25-12,2.92-2.94,4.21,10.77-.88,13.55-1.3,2.37-.22,5.38,0,3.88,8,3,.22-.88-9.69.31-11.21.55-2.58,4.22-1.29,5.46,1.73,6.39,4.1,3.52,4.92,5.25,5.26,5.46-.12,7.53,0c.78.05,2.08.06,2.08.06v-17.17a18.52,18.52,0,0,0-3.8-1.08,33.89,33.89,0,0,0-6.68,0c-3.23.22-3.45.22-6-1.29s-3-2.15-5.62-3.34-1.72-4.42-4.95-1.19-3,2.81-5.39,5.18-1.08,3-5,3.44-6.34-.43-7.37,1.08-3.19.64-1.25,3.23S7413.39,7034.52,7413.39,7034.52Z" transform="translate(-6942.96 -6943.5)"/><path class="e39e84bf-4d5c-44a7-88a6-8d0d12079f8e" d="M7250.28,7106.12c.65,0,3.88-2.16,8-3.23s9.43-3.62,13-2.89,5.94.73,9.61,1.16,9.48.43,10.77,0,3.44-.86,4.95-.22,1.94-.21,1.73,1.94-.86,4.58-1.51,5.42a7.38,7.38,0,0,1-4.74,3c-2.38.21-2.3.22-6.32-.44s-14.52-.64-14.52-.64-5.69.86-8.7.43-4.53-2.34-7.11-2.34S7250.28,7106.12,7250.28,7106.12Z" transform="translate(-6942.96 -6943.5)"/><path class="ec1b2b49-8a41-4b86-bfb5-02cc88bfa4b9" d="M7303.79,7108.3a43.9,43.9,0,0,1,8.18-2.65c4.31-.82,9.91-1.87,10.77-1.68a9.94,9.94,0,0,1,2.59,1.68s-.43,2.47,1.94,2.65a19.21,19.21,0,0,0,6.25,0c3.88-.47,5.15.47,7.75,0s.65-2.34,4.1,0,3.44,3.68,7.33,3.13,7.95-1.41,7.95-1.41,2.16,0,6.25.22a19.23,19.23,0,0,1,6.69,1.2c2.58.74-3.24-.69,5.38.13s20.17,2.55,23.55,1.68,6,.26,9.2.24,1.08-.41,7.11,0,4.52.23,8,0,17.45.46,20.47,0c2.53-.38,7.17-2.62,7.17-2.62v12.5a56.75,56.75,0,0,0-6.24.58c-2,.29-4.68,2.22-7,.94-6.46-3.66-5.15-4.31-10.12-5.81s-6.25-1.73-10.13-1.51a28.56,28.56,0,0,0-7.33,1.07c-3.88.87.87,1.3-6.24.87s-8.19-.43-11.43-1.08,1.08-3.23-3.23-.65-1.5,1.08-4.95,3-1.73,2.37-5.62,2.59-1.51.21-7.11-.22-4.75-1.72-10.35-1.51-4.09-.43-8.42,1.08-6.56,2.42-12.64,2.29-8.26-.57-9.34-1.21-1.51-2.59-4.31-3-3.52-1.5-6.39-.43-4.38,3-8,1.51,1.51,0-6.24-2.16-8.19-2.58-7.55-3.44S7303.79,7108.3,7303.79,7108.3Z" transform="translate(-6942.96 -6943.5)"/><path class="e04f2fcd-0cde-49a8-9efb-ab1eb72f4683" d="M7230.24,7053.43s3.88-2.25,12.5,1.41,15.29,3.49,19.61,6.81,10.55,2.54,6.46,7.45-5.82,6-11.21,5.34a79.74,79.74,0,0,1-12.49-3s-3.66-3.92-7.11-3.71-1.73,3-5,.22-4.31-4-3.88-6.33S7230.24,7053.43,7230.24,7053.43Z" transform="translate(-6942.96 -6943.5)"/><path class="f8f275e7-0ec4-4e63-a891-83e379f7e8b8" d="M7099.47,7021.33" transform="translate(-6942.96 -6943.5)"/><path class="a3cd083d-109b-4217-8689-a0159e6e0a61" d="M7454.47,7029.89" transform="translate(-6942.96 -6943.5)"/><path class="a3cd083d-109b-4217-8689-a0159e6e0a61" d="M7454.47,7029.89" transform="translate(-6942.96 -6943.5)"/><path class="a3cd083d-109b-4217-8689-a0159e6e0a61" d="M7454.47,7029.89" transform="translate(-6942.96 -6943.5)"/><path class="b25915b1-2112-4b2e-81d3-36e270a82f27" d="M7453.75,7028.55" transform="translate(-6942.96 -6943.5)"/><path class="a3cd083d-109b-4217-8689-a0159e6e0a61" d="M7454.47,7029.89" transform="translate(-6942.96 -6943.5)"/><path class="a3cd083d-109b-4217-8689-a0159e6e0a61" d="M7454.47,7029.89" transform="translate(-6942.96 -6943.5)"/><path class="a3cd083d-109b-4217-8689-a0159e6e0a61" d="M7454.47,7029.89" transform="translate(-6942.96 -6943.5)"/><path class="a3cd083d-109b-4217-8689-a0159e6e0a61" d="M7454.47,7029.89" transform="translate(-6942.96 -6943.5)"/></g><path class="bd057da2-2b8f-4a20-87a7-c7ed086a3007" d="M7032.66,7100.09" transform="translate(-6942.96 -6943.5)"/><path class="a7c8619b-c92e-4fc1-a6af-76b193cac12b" d="M6943,7104.39s63.28-11.63,103.79-12.06,152.12,4.31,212.45,15.51c52.4,9.74,195.27,28.81,195.27,28.81v132.06H6943.09Z" transform="translate(-6942.96 -6943.5)"/><line class="b940b1cb-57d5-4481-91f5-742c8612d86e" x1="0.26" y1="46.58" x2="0.26" y2="37.67"/><path class="bd707e85-e2ca-4069-a8cb-b28947a396d0" d="M7455.3,7143.5" transform="translate(-6942.96 -6943.5)"/></g><g id="fb0c9dee-72aa-47a8-977e-ff417ae38639" data-name="Layer 3"><rect class="fe435a5e-1272-48bf-b1c8-5d74f67d1668" x="0.54" width="512" height="37.4"/><rect class="fe435a5e-1272-48bf-b1c8-5d74f67d1668" x="507.61" y="33.54" width="3.9" height="291.67"/><rect class="fe435a5e-1272-48bf-b1c8-5d74f67d1668" x="0.13" y="321.54" width="510.66" height="3.67"/><rect class="fe435a5e-1272-48bf-b1c8-5d74f67d1668" x="0.54" y="37.73" width="2.8" height="285.64"/></g><g id="acece4bd-cae7-4c56-ada7-51acae1202ea" data-name="Layer 4"><rect class="ade86052-a961-46b0-83a6-22ec1f11b114" x="3.34" y="293.49" width="504.27" height="28.04"/><rect class="b8c4a84f-323e-4391-b227-5d8c7c5b0a2d" x="15.07" y="299.29" width="20.22" height="16.99"/><rect class="b8c4a84f-323e-4391-b227-5d8c7c5b0a2d" x="485.62" y="303.86" width="8.37" height="8.37"/><rect class="b8c4a84f-323e-4391-b227-5d8c7c5b0a2d" x="444.24" y="312.24" width="29.53" height="4.04"/><rect class="b4095898-55ef-4208-9572-50995d0168ba" x="451.73" y="303.86" width="14.98" height="4.19"/></g></svg>