<?xml version="1.0" encoding="utf-8"?>
<!-- Generator: Adobe Illustrator 23.0.1, SVG Export Plug-In . SVG Version: 6.00 Build 0)  -->
<svg version="1.1" xmlns="http://www.w3.org/2000/svg" xmlns:xlink="http://www.w3.org/1999/xlink" x="0px" y="0px"
	 viewBox="0 0 500 438.5" style="enable-background:new 0 0 500 438.5;" xml:space="preserve">
<style type="text/css">
	.st0{display:none;}
	.st1{display:inline;}
	.st2{display:inline;fill:#FFFFFF;}
	.st3{fill:#FFFFFF;}
</style>
<g id="Layer_2" class="st0">
	<rect class="st1" width="500" height="438.5"/>
</g>
<g id="Layer_4" class="st0">
	
		<image style="display:inline;overflow:visible;" width="1200" height="1200" xlink:href="157B76A2.jpg"  transform="matrix(0.3569 0 0 0.327 25.4761 8.4093)">
	</image>
</g>
<g id="Layer_3" class="st0">
	<path class="st2" d="M177.2,47.5"/>
	<polygon class="st2" points="25.5,62.9 25.5,196.1 199,196.1 199,40.2 	"/>
	<polygon class="st2" points="220.1,40.2 220.1,193.4 450.4,193.4 450.4,8.4 	"/>
	<polygon class="st2" points="450.4,216.6 450.4,398.3 220.1,369.2 220.1,216.6 	"/>
	<polygon class="st2" points="25.5,211.7 199,214.4 199,367.6 25.5,344.9 	"/>
	<path class="st2" d="M360.3,103.3"/>
</g>
<g id="Layer_3_copy">
	<path class="st3" d="M177.2,47.5"/>
	<polygon class="st3" points="25.5,62.9 25.5,196.1 199,121.7 199,40.2 	"/>
	<polygon class="st3" points="220.1,40.2 220.1,128.1 172.6,158.1 186.1,196.1 450.4,193.4 450.4,8.4 	"/>
	<polygon class="st3" points="450.4,216.6 450.4,398.3 220.1,369.2 186.1,213.3 	"/>
	<polygon class="st3" points="25.5,211.7 152.7,165.3 199,367.6 25.5,344.9 	"/>
	<path class="st3" d="M360.3,103.3"/>
</g>
<g id="e25fa033-9ec2-4ded-b6df-1a23ce533d73" class="st0">
	<title>Untitled-1</title>
	<polygon class="st2" points="157.1,259.1 265,259.1 344.8,31.8 250.9,31.8 	"/>
	<polygon class="st2" points="205.1,86.2 93.5,86.2 39.5,139.7 39.5,379 133.1,286.3 133.2,166.3 173,166.2 	"/>
	<polygon class="st2" points="145.6,326.4 360,326.4 360,166.9 320.3,166.9 348,86.2 413.9,86.2 466.9,139.2 466.9,353.6 
		414.8,406.7 65.8,406.7 	"/>
</g>
</svg>
