<?xml version="1.0" encoding="utf-8"?>
<!-- Generator: Adobe Illustrator 24.0.1, SVG Export Plug-In . SVG Version: 6.00 Build 0)  -->
<svg version="1.1" xmlns="http://www.w3.org/2000/svg" xmlns:xlink="http://www.w3.org/1999/xlink" x="0px" y="0px"
	 viewBox="0 0 500 438.5" style="enable-background:new 0 0 500 438.5;" xml:space="preserve">
<style type="text/css">
	.st0{fill:#FFFFFF;}
	.st1{display:none;}
	.st2{display:inline;}
	.st3{display:inline;fill:#FFFFFF;}
</style>
<g id="Layer_2">
	<g id="Layer_2_2_">
		<polyline class="st0" points="264.8,24.4 333.5,24.4 275.9,190.3 197.7,190.3 		"/>
		<polyline class="st0" points="339.3,71.2 405.8,71.2 459.3,124.7 459.3,338.8 406.8,391.3 59.2,391.3 139.7,310.8 352.8,310.9 
			353.8,151.2 311.6,151.2 		"/>
		<polyline class="st0" points="215.9,53.4 181,137.6 138.6,137.6 138.6,266.4 40.7,364.9 40.7,109.5 97.4,53.4 		"/>
	</g>
</g>
<g id="Layer_1">
	<g id="Layer_2_1_" class="st1">
		<rect class="st2" width="500" height="438.5"/>
	</g>
	<g id="Layer_4" class="st1">
	</g>
	<g id="Layer_3" class="st1">
		<path class="st3" d="M177.2,47.5"/>
		<polygon class="st3" points="25.5,62.9 25.5,196.1 199,196.1 199,40.2 		"/>
		<polygon class="st3" points="220.1,40.2 220.1,193.4 450.4,193.4 450.4,8.4 		"/>
		<polygon class="st3" points="450.4,216.6 450.4,398.3 220.1,369.2 220.1,216.6 		"/>
		<polygon class="st3" points="25.5,211.7 199,214.4 199,367.6 25.5,344.9 		"/>
		<path class="st3" d="M360.3,103.3"/>
	</g>
	<g id="e25fa033-9ec2-4ded-b6df-1a23ce533d73" class="st1">
		<title>Untitled-1</title>
		<polygon class="st3" points="157.1,259.1 265,259.1 344.8,31.8 250.9,31.8 		"/>
		<polygon class="st3" points="205.1,86.2 93.5,86.2 39.5,139.7 39.5,379 133.1,286.3 133.2,166.3 173,166.2 		"/>
		<polygon class="st3" points="145.6,326.4 360,326.4 360,166.9 320.3,166.9 348,86.2 413.9,86.2 466.9,139.2 466.9,353.6 
			414.8,406.7 65.8,406.7 		"/>
	</g>
</g>
<g id="Layer_3_1_">
</g>
</svg>
