<?xml version="1.0" encoding="utf-8"?>
<!-- Generator: Adobe Illustrator 23.0.1, SVG Export Plug-In . SVG Version: 6.00 Build 0)  -->
<svg version="1.1" xmlns="http://www.w3.org/2000/svg" xmlns:xlink="http://www.w3.org/1999/xlink" x="0px" y="0px"
	 viewBox="0 0 512 512" style="enable-background:new 0 0 512 512;" xml:space="preserve">
<style type="text/css">
	.st0{fill:#4EC455;}
	.st1{fill:none;stroke:#4EC455;stroke-width:8;stroke-miterlimit:10;}
	.st2{fill:none;stroke:#4EC455;stroke-width:4;stroke-miterlimit:10;}
</style>
<g id="Layer_1">
	<g>
		<path class="st0" d="M59.63,211.32l-1.14,1.45c-3.83,4.9-7.23,8.9-10.2,12.01c3-1.72,6.52-2.59,10.56-2.59
			c4.49,0,9.78,1.16,15.89,3.47l14.18,5.75l14.7,6c6.14,2.48,9.9,3.73,11.28,3.73c1.55,0,3.54-1.12,5.95-3.36l1.35,1.4
			c-3.07,2.76-6.07,5.88-9.01,9.37c-5.25-1.83-13.35-5.09-24.33-9.78c-20.12-8.59-32.21-12.89-36.28-12.89
			c-2.04,0-3.74,0.43-5.12,1.29c-1.38,0.86-3.64,2.92-6.78,6.16l-0.93,0.93l-1.04-1.66c4.14-4.24,8.83-9.58,14.08-15.99l3.67-4.45
			c0.07-0.1,0.36-0.47,0.88-1.09c-1-0.1-1.86-0.16-2.59-0.16c-5.56,0-9.97,1.61-13.25,4.84c-3.28,3.23-4.92,7.57-4.92,13.02
			c0,4.8,1.91,8.84,5.72,12.14c3.81,3.29,8.46,4.94,13.95,4.94c3.83,0,8.25-1.47,13.25-4.4l1.09,1.55c-6,4.04-11.92,6.06-17.75,6.06
			c-5.59,0-10.06-1.7-13.41-5.1c-3.35-3.4-5.02-7.96-5.02-13.69c0-7.18,2.22-13.14,6.65-17.88c4.43-4.74,10.03-7.12,16.8-7.12
			c1.21,0,2.4,0.03,3.57,0.1l0.62,0.05l1.35-1.76c8.42-10.56,16.12-18.18,23.11-22.88s14.16-7.04,21.51-7.04
			c5.18,0,9.25,1.22,12.21,3.65c2.97,2.43,4.45,5.77,4.45,10.02c0,3.86-1.42,7.97-4.24,12.32c-3.17,4.9-7.32,8.77-12.42,11.62
			c-5.11,2.85-10.47,4.27-16.1,4.27c-5.14,0-13.58-1.07-25.31-3.21C63.58,211.85,61.26,211.49,59.63,211.32z M64.4,205.62
			c2.73,0.31,6.47,0.88,11.23,1.71c10.08,1.76,17.22,2.64,21.43,2.64c6.35,0,11.9-1.85,16.67-5.56c4.76-3.71,7.14-8.05,7.14-13.02
			c0-4.42-1.49-7.94-4.48-10.56c-2.98-2.62-6.98-3.93-11.98-3.93c-6.21,0-13.01,2.73-20.39,8.18c-5.11,3.8-11.2,10.09-18.27,18.89
			L64.4,205.62z"/>
		<path class="st0" d="M145.19,203.81v0.57c0,3.24-2.14,9.66-6.42,19.25l-3.83,8.7c-2.04,4.66-3.09,7.5-3.16,8.54
			c-0.03,1.07,0.55,1.57,1.76,1.5c0.69-0.03,1.83-0.4,3.42-1.09l0.67,1.5c-5.42,2.59-9.75,4.43-12.99,5.54
			c0.17-3.24,0.7-6.24,1.58-8.98c0.88-2.74,2.79-7.29,5.72-13.64c3.73-8.14,5.62-12.9,5.69-14.29c0.07-1.07-0.38-1.6-1.35-1.6
			c-0.45,0-1.04,0.12-1.76,0.36l-2.17,0.78c-0.14,0.04-0.47,0.16-0.98,0.36l-0.52-1.66l1.09-0.36c3.83-1.42,7.73-3,11.7-4.76
			L145.19,203.81z M148.19,190.56c1.59,0,2.38,0.79,2.38,2.38c0,0.9-0.35,1.71-1.06,2.43c-0.71,0.72-1.51,1.09-2.41,1.09
			c-1.62,0-2.43-0.79-2.43-2.38c0-0.9,0.35-1.71,1.06-2.43C146.44,190.92,147.26,190.56,148.19,190.56z"/>
		<path class="st0" d="M196.84,177.1c-0.14,2.28-1.76,7.33-4.87,15.17l-3.83,9.63l-1.5,3.73c2.07,0.83,3.19,2.52,3.37,5.07
			c-1.45-0.48-3.11-0.78-4.97-0.88l-0.36,0.93L178,227.72c-3.11,7.9-4.66,12.41-4.66,13.51c0,0.97,0.46,1.45,1.4,1.45
			c0.97,0,2.55-0.67,4.76-2.02c0.1-0.07,0.28-0.17,0.52-0.31l0.98,1.24c-3.73,2.59-8.94,4.83-15.63,6.73l0.41-1.71
			c1.1-4.14,2.92-9.32,5.43-15.53c0.79-1.9,1.52-3.67,2.17-5.33l5.8-15.11l0.52-1.14c-3.73,0-7.75,0.99-12.06,2.98
			c-4.31,1.99-8.09,4.56-11.33,7.74c-6.07,6.04-9.11,12.25-9.11,18.63c0,2.93,1.07,4.4,3.21,4.4c2.1,0,4.74-1.45,7.89-4.35
			s5.94-6.42,8.36-10.56c2.28-3.93,4.14-8.33,5.59-13.2c0.59,1.28,0.88,2.64,0.88,4.09c0,2.86-1.23,6.19-3.7,9.99
			c-2.47,3.8-5.77,7.47-9.91,11.02c-6.18,5.25-10.99,7.87-14.44,7.87c-2.62,0-3.93-1.64-3.93-4.92c0-2.86,0.92-6.16,2.77-9.89
			s4.3-7.28,7.38-10.66c8.59-9.42,18.58-15.1,29.97-17.03l1.4-3.57l3.73-9.78c1.1-2.83,1.67-4.76,1.71-5.8
			c0.07-1.48-0.67-2.23-2.22-2.23c-0.9,0-1.9,0.22-3,0.67l-0.62-1.55l0.83-0.31C188.7,180.95,193.29,178.97,196.84,177.1z"/>
		<path class="st0" d="M221.9,204.54l-7.3,13.61h-1.81l0.41-0.88c1.21-2.62,1.81-4.43,1.81-5.43c0-1.24-1.31-1.86-3.93-1.86
			c-4.04,0-7.52,1.71-10.46,5.12c-2.79,3.24-5.18,7.12-7.17,11.62c-1.98,4.5-2.98,8.29-2.98,11.36c0,3.8,1.74,5.69,5.23,5.69
			c2.97,0,6.02-1.28,9.16-3.83c3.14-2.55,5.78-5.92,7.92-10.09l1.35-2.59c0.07-0.14,0.22-0.43,0.47-0.88
			c0.38,0.66,0.57,1.33,0.57,2.02c0,2.97-2.21,6.59-6.63,10.87c-6.52,6.28-12.47,9.42-17.86,9.42c-4.59,0-6.88-2.59-6.88-7.76
			c0-4.45,1.5-9.25,4.5-14.39c3-5.14,6.99-9.76,11.96-13.87c6.66-5.49,13.16-8.23,19.51-8.23
			C220.19,204.43,220.89,204.47,221.9,204.54z"/>
		<path class="st0" d="M244.57,225.14c0.48,0.97,0.72,1.83,0.72,2.59c0,3.31-2.29,7.13-6.88,11.44c-6.69,6.31-12.39,9.47-17.08,9.47
			c-4.04,0-6.06-2.29-6.06-6.88c0-5.18,1.58-10.61,4.74-16.3c3.16-5.69,7.2-10.39,12.14-14.08c6-4.49,11.35-6.73,16.04-6.73
			c2.73,0,4.09,1,4.09,3c0,1.31-0.66,2.89-1.97,4.74c-1.31,1.85-2.95,3.51-4.92,5c-1.83,1.35-4.15,2.59-6.96,3.73
			c-2.81,1.14-4.98,1.71-6.5,1.71c-1.62,0-2.74-0.9-3.36-2.69c1.45,0.21,2.6,0.31,3.47,0.31c3.45,0,6.63-0.99,9.55-2.98
			c2.92-1.98,4.37-4.13,4.37-6.44c0-1.66-1.07-2.48-3.21-2.48c-3.83,0-7.75,2.35-11.75,7.04c-2.83,3.31-5.16,7.18-6.99,11.59
			c-1.83,4.42-2.74,8.35-2.74,11.8c0,3.55,1.48,5.33,4.45,5.33c3.24,0,6.62-1.79,10.12-5.36
			C239.35,235.36,242.25,230.76,244.57,225.14z"/>
		<path class="st0" d="M282.19,205.26l-1.86,5.23c-1.31-0.28-2.47-0.41-3.47-0.41c-4,0-8.28,3.07-12.84,9.21
			c-2.14,2.93-3.98,6.13-5.51,9.58c-1.54,3.45-3.44,8.71-5.72,15.79l-0.57,1.76c-2.24,0.48-4.38,1.07-6.42,1.76l0.57-1.55
			l4.55-12.11c4.31-11.66,6.47-18.53,6.47-20.6c0-1.07-0.47-1.6-1.4-1.6c-0.52,0-1.67,0.47-3.47,1.4l-0.67-1.6
			c4.83-2.35,9.16-4.95,12.99-7.82c0.14,0.62,0.21,1.19,0.21,1.71c0,2.66-1.19,7.09-3.57,13.3l1.24-1.45
			c8.04-8.83,13.73-13.25,17.08-13.25C280.54,204.59,281.33,204.81,282.19,205.26z"/>
	</g>
	<path class="st1" d="M51.27,189.15c0,0,176.64-286.51,417.7-88.64"/>
</g>
<g id="Layer_5">
	<polygon class="st2" points="327.25,206.6 293.74,240.31 293.74,137.3 317,114.11 365.81,114.11 352.32,148.35 333.72,148.35 
		335.07,199.32 345.31,187.72 386.16,90.11 425.4,90.11 391.43,189.07 352.32,188.53 339.92,217.66 432.41,217.66 432.41,149.16 
		414.89,148.35 426.75,114.11 455.34,114.38 478.57,136.76 478.57,228.98 455.34,252.43 305.94,252.43 334.8,222.51 	"/>
</g>
<g id="Layer_4">
</g>
<g id="Layer_2">
</g>
<g id="Layer_6">
	<line class="st1" x1="45.69" y1="263.77" x2="456.65" y2="263.77"/>
</g>
</svg>
