<svg xmlns="http://www.w3.org/2000/svg" viewBox="0 0 530 530"><defs><style>.bc8f6d85-4fa9-41e3-99c2-d019f08c55f5{fill:#323943;}.a7a00785-1f7a-4f9f-8e4c-d4ee3c62aaf2{fill:none;stroke:#191c21;stroke-miterlimit:10;stroke-width:18px;}.ff9d3f09-752b-4366-9b4d-e1b069c0c5c9{fill:#76b900;}</style></defs><title>Untitled-1</title><g id="b7b25a35-5ae2-4e81-b2f6-3179eaf9323f" data-name="Layer 1"><rect class="bc8f6d85-4fa9-41e3-99c2-d019f08c55f5" x="9" y="9" width="512" height="512" rx="10"/><rect class="a7a00785-1f7a-4f9f-8e4c-d4ee3c62aaf2" x="9" y="9" width="512" height="512" rx="10"/><rect class="ff9d3f09-752b-4366-9b4d-e1b069c0c5c9" x="250.25" y="122.06" width="260.22" height="325.21"/></g><g id="b39011e3-aaeb-4c4b-9e61-c2a587551546" data-name="Layer 3"><polygon class="bc8f6d85-4fa9-41e3-99c2-d019f08c55f5" points="250.24 348.83 303.5 348.83 303.5 236.85 275.32 236.85 295.14 180.63 340.85 180.63 378.12 218.05 378.12 367.71 341.25 404.86 250.24 404.86 250.24 348.83"/><polygon class="bc8f6d85-4fa9-41e3-99c2-d019f08c55f5" points="250.44 143.01 250.24 263.74 292.11 143.01 250.44 143.01"/><path class="bc8f6d85-4fa9-41e3-99c2-d019f08c55f5" d="M7455.5,7478.61" transform="translate(-6934.5 -6934.5)"/></g><g id="fadf3ebd-ebba-475d-88b5-368b233bd4b3" data-name="Layer 4"><polygon class="ff9d3f09-752b-4366-9b4d-e1b069c0c5c9" points="250.24 404.86 97.34 404.86 153.43 348.43 250.24 348.83 250.24 404.86"/><polygon class="ff9d3f09-752b-4366-9b4d-e1b069c0c5c9" points="250.44 143.01 227.05 143.01 161.52 302.05 236.22 302.05 250.24 263.74 250.44 143.01"/><polygon class="ff9d3f09-752b-4366-9b4d-e1b069c0c5c9" points="194.96 180.63 116.76 180.63 79.15 218.18 79.15 386.18 145.07 320.92 144.55 237.05 171.77 236.79 194.96 180.63"/></g></svg>