<?xml version="1.0" encoding="utf-8"?>
<!-- Generator: Adobe Illustrator 23.0.1, SVG Export Plug-In . SVG Version: 6.00 Build 0)  -->
<svg version="1.1" id="Layer_1" xmlns="http://www.w3.org/2000/svg" xmlns:xlink="http://www.w3.org/1999/xlink" x="0px" y="0px"
	 viewBox="0 0 409.7 409.8" style="enable-background:new 0 0 409.7 409.8;" xml:space="preserve">
<style type="text/css">
	.st0{fill:#F03A17;stroke:#A52613;stroke-width:9;stroke-miterlimit:10;}
	.st1{fill:#FFFFFF;}
</style>
<title>Untitled-1</title>
<circle class="st0" cx="204.8" cy="204.9" r="177.7"/>
<g>
	<path class="st1" d="M313.2,297.5c0,11-0.6,17.5-1.7,19.5c-1.4,2.5-5.7,3.7-13,3.7c-1.1,0-3.7,0-7.6,0c-3.8-0.1-7-0.2-9.6-0.2
		c-2.6,0-6.5-0.1-11.7-0.3c-5.2-0.2-9-0.3-11.6-0.3c-2,0-11.2-10.8-27.5-32.3c-16.3-21.5-24.8-32.3-25.4-32.4
		c-2.7,1.9-11.8,13.2-27.5,33.9c-15,19.8-23.8,30.1-26.4,30.7c-1.8,0.4-6.6,0.7-14.3,0.7c-26.1,0-39.2-1.2-39.2-3.5
		s-0.2-5.7-0.5-10.1c-0.3-4.4-0.5-7.6-0.5-9.7c0-13.9,1-22.1,2.9-24.5c0.1-0.1,10.6-12.4,31.5-36.8c16.9-19.7,25.4-31,25.4-33.8
		c0-2.8-8.5-13.9-25.4-33.3c-10.7-12-21.3-24-31.9-36.1c-1.1-1.5-1.8-3.9-2.1-7.2c-0.1-2.4-0.1-5.5,0-9.6c0.4-4.8,0.6-7.5,0.6-8.1
		c0-2.2-0.2-5.7-0.7-10.4c-0.4-4.7-0.7-8.2-0.7-10.4c0-2.1,2.2-3.2,6.7-3.2c2.9,0,7.3,0.2,13,0.5c5.7,0.3,10,0.5,12.8,0.5
		c2.5,0,6.3-0.1,11.3-0.3c5-0.2,8.7-0.3,11.1-0.3c2,0,11.3,10.9,27.8,32.7c16.5,21.8,25.1,32.7,25.9,32.7
		c2.5-1.3,11.9-12.8,28.1-34.3c15.4-20.7,24.3-31.1,26.6-31.1H305c4.5,0,6.7,1,6.7,2.9v40.8c0,2.9-9.8,15.6-29.5,38.1
		s-29.5,34.4-29.5,35.8c0,1.9,8.7,12.9,26,33.1c20.4,23.6,31,36,31.9,37.1C312.4,274.4,313.2,282.9,313.2,297.5z"/>
</g>
</svg>
