<?xml version="1.0" encoding="utf-8"?>
<!-- Generator: Adobe Illustrator 23.0.1, SVG Export Plug-In . SVG Version: 6.00 Build 0)  -->
<svg version="1.1" id="Layer_1" xmlns="http://www.w3.org/2000/svg" xmlns:xlink="http://www.w3.org/1999/xlink" x="0px" y="0px"
	 viewBox="0 0 409.7 409.8" style="enable-background:new 0 0 409.7 409.8;" xml:space="preserve">
<style type="text/css">
	.st0{fill:#0078D7;stroke:#004E8C;stroke-width:9;stroke-miterlimit:10;}
	.st1{fill:#FFFDFD;}
</style>
<title>Untitled-1</title>
<circle class="st0" cx="204.8" cy="204.9" r="177.7"/>
<g>
	<path class="st1" d="M233.6,240.8c0,9.2,0.2,22.9,0.6,41.1c0.4,18.2,0.6,31.8,0.6,40.9c0,2.6-1.6,4.2-4.7,4.7
		c-4.3,0.8-13.9,1.1-28.9,1.1c-15.1,0-24.8-0.4-29.1-1.1c-2.8-0.5-4.5-1.3-5.1-2.5c-0.3-0.5-0.4-2.4-0.4-5.7
		c0-8.7,0.2-21.8,0.6-39.2c0.4-17.4,0.6-30.6,0.6-39.4c0-35.8-1.4-64.2-4.2-85.4c-0.3-2-0.4-3.3-0.4-4c0-2.5,1.7-3.8,5.1-3.8
		c3.5,0,8.9,0.4,16.1,1.1c7.2,0.8,12.7,1.1,16.3,1.1c3.7,0,9.1-0.3,16.4-0.9c7.3-0.6,12.8-0.9,16.4-0.9c3,0,4.5,1.3,4.5,3.8
		c0,0.5-0.1,1.7-0.4,3.6C234.9,180,233.6,208.4,233.6,240.8z M238.5,100.5c0,21.9-12.3,32.9-37,32.9c-10.6,0-19.3-2.8-26.3-8.3
		c-7.6-6-11.3-14.2-11.3-24.6c0-9.8,3.9-17.9,11.7-24.2c7.2-5.8,15.8-8.7,25.9-8.7c9.8,0,18.3,3,25.5,8.9
		C234.6,82.8,238.5,90.8,238.5,100.5z"/>
</g>
</svg>
