<?xml version="1.0" encoding="utf-8"?>
<!-- Generator: Adobe Illustrator 23.0.1, SVG Export Plug-In . SVG Version: 6.00 Build 0)  -->
<svg version="1.1" id="Layer_1" xmlns="http://www.w3.org/2000/svg" xmlns:xlink="http://www.w3.org/1999/xlink" x="0px" y="0px"
	 viewBox="0 0 409.7 409.8" style="enable-background:new 0 0 409.7 409.8;" xml:space="preserve">
<style type="text/css">
	.st0{fill:#FCE100;stroke:#FFBC00;stroke-width:12;stroke-miterlimit:10;}
</style>
<title>Untitled-1</title>
<polygon class="st0" points="41,368.8 368.7,368.8 204.8,41 "/>
<g>
	<path d="M226.2,172.5c0,14.8-1.3,28.7-4,41.7c-3.3,13.3-6.5,26.7-9.6,39.9c-0.7,3-4,4.5-9.8,4.5c-6.6,0-10.3-1.3-11-3.9
		c-7.7-26.1-11.5-41-11.5-44.6c0-3.3,0.2-8.3,0.5-14.9c0.3-6.6,0.5-11.6,0.5-14.9c0-3.7-0.1-9.2-0.4-16.5s-0.4-12.8-0.4-16.5
		c0-3,0.7-4.5,2.2-4.5c2.3,0,5.7,0.2,10.3,0.5c4.6,0.3,8,0.5,10.3,0.5c2.3,0,5.7-0.2,10.3-0.5c4.6-0.3,8-0.5,10.3-0.5
		C225.4,143,226.2,152.8,226.2,172.5z M226.2,293.5c0,6.8-2.1,12.5-6.3,17c-4.2,4.5-9.8,6.8-16.6,6.8c-6.9,0-12.5-2.2-16.7-6.7
		c-4.2-4.5-6.3-10.2-6.3-17.1c0-6.8,2.1-12.5,6.3-16.8c4.2-4.4,9.8-6.6,16.6-6.6c6.8,0,12.3,2.2,16.5,6.6
		C224.1,281,226.2,286.6,226.2,293.5z"/>
</g>
</svg>
